{
    "asset" : {
        "generator" : "Khronos glTF Blender I/O v1.5.17",
        "version" : "2.0"
    },
    "scene" : 0,
    "scenes" : [
        {
            "name" : "Scene",
            "nodes" : [
                0,
                1,
                2,
                3,
                4
            ]
        }
    ],
    "nodes" : [
        {
            "mesh" : 0,
            "name" : "Desk",
            "scale" : [
                1,
                1,
                3.5
            ]
        },
        {
            "name" : "Light",
            "rotation" : [
                0.16907575726509094,
                0.7558803558349609,
                -0.27217137813568115,
                0.570947527885437
            ],
            "translation" : [
                4.076245307922363,
                5.903861999511719,
                -1.0054539442062378
            ]
        },
        {
            "name" : "Camera",
            "rotation" : [
                0.483536034822464,
                0.33687159419059753,
                -0.20870360732078552,
                0.7804827094078064
            ],
            "translation" : [
                7.358891487121582,
                4.958309173583984,
                6.925790786743164
            ]
        },
        {
            "mesh" : 1,
            "name" : "Computer",
            "scale" : [
                0.11999999731779099,
                0.7400000095367432,
                1.3100000619888306
            ],
            "translation" : [
                -0.4000000059604645,
                2.180000066757202,
                2
            ]
        },
        {
            "mesh" : 2,
            "name" : "Computer2",
            "scale" : [
                0.11999999731779099,
                0.7400000095367432,
                1.3100000619888306
            ],
            "translation" : [
                -0.4000000059604645,
                2.180000066757202,
                -2
            ]
        }
    ],
    "materials" : [
        {
            "doubleSided" : true,
            "name" : "\ub9e4\ud14c\ub9ac\uc5bc",
            "pbrMetallicRoughness" : {
                "baseColorFactor" : [
                    0.49999991059303284,
                    0.30119946599006653,
                    0.08604328334331512,
                    1
                ],
                "metallicFactor" : 0,
                "roughnessFactor" : 0.4710744023323059
            }
        },
        {
            "doubleSided" : true,
            "name" : "\ub9e4\ud14c\ub9ac\uc5bc.003",
            "pbrMetallicRoughness" : {
                "baseColorFactor" : [
                    0.05141064524650574,
                    0.05141064524650574,
                    0.05141064524650574,
                    1
                ],
                "metallicFactor" : 0,
                "roughnessFactor" : 0
            }
        },
        {
            "doubleSided" : true,
            "name" : "\ub9e4\ud14c\ub9ac\uc5bc.002",
            "pbrMetallicRoughness" : {
                "baseColorFactor" : [
                    0,
                    0,
                    0,
                    1
                ],
                "metallicFactor" : 0,
                "roughnessFactor" : 0
            }
        },
        {
            "doubleSided" : true,
            "name" : "\ub9e4\ud14c\ub9ac\uc5bc.001",
            "pbrMetallicRoughness" : {
                "baseColorFactor" : [
                    0,
                    0,
                    0,
                    1
                ],
                "metallicFactor" : 0,
                "roughnessFactor" : 0
            }
        },
        {
            "doubleSided" : true,
            "name" : "\ub9e4\ud14c\ub9ac\uc5bc.008",
            "pbrMetallicRoughness" : {
                "baseColorFactor" : [
                    0.05141064524650574,
                    0.05141064524650574,
                    0.05141064524650574,
                    1
                ],
                "metallicFactor" : 0,
                "roughnessFactor" : 0
            }
        },
        {
            "doubleSided" : true,
            "name" : "\ub9e4\ud14c\ub9ac\uc5bc.007",
            "pbrMetallicRoughness" : {
                "baseColorFactor" : [
                    0,
                    0,
                    0,
                    1
                ],
                "metallicFactor" : 0,
                "roughnessFactor" : 0
            }
        },
        {
            "doubleSided" : true,
            "name" : "\ub9e4\ud14c\ub9ac\uc5bc.006",
            "pbrMetallicRoughness" : {
                "baseColorFactor" : [
                    0,
                    0,
                    0,
                    1
                ],
                "metallicFactor" : 0,
                "roughnessFactor" : 0
            }
        }
    ],
    "meshes" : [
        {
            "name" : "Cube",
            "primitives" : [
                {
                    "attributes" : {
                        "POSITION" : 0,
                        "NORMAL" : 1,
                        "TEXCOORD_0" : 2
                    },
                    "indices" : 3,
                    "material" : 0
                }
            ]
        },
        {
            "name" : "\ud050\ube0c",
            "primitives" : [
                {
                    "attributes" : {
                        "POSITION" : 4,
                        "NORMAL" : 5,
                        "TEXCOORD_0" : 6
                    },
                    "indices" : 7,
                    "material" : 1
                },
                {
                    "attributes" : {
                        "POSITION" : 8,
                        "NORMAL" : 9,
                        "TEXCOORD_0" : 10
                    },
                    "indices" : 11,
                    "material" : 2
                },
                {
                    "attributes" : {
                        "POSITION" : 12,
                        "NORMAL" : 13,
                        "TEXCOORD_0" : 14
                    },
                    "indices" : 11,
                    "material" : 3
                }
            ]
        },
        {
            "name" : "\ud050\ube0c.002",
            "primitives" : [
                {
                    "attributes" : {
                        "POSITION" : 15,
                        "NORMAL" : 16,
                        "TEXCOORD_0" : 17
                    },
                    "indices" : 7,
                    "material" : 4
                },
                {
                    "attributes" : {
                        "POSITION" : 18,
                        "NORMAL" : 19,
                        "TEXCOORD_0" : 20
                    },
                    "indices" : 11,
                    "material" : 5
                },
                {
                    "attributes" : {
                        "POSITION" : 21,
                        "NORMAL" : 22,
                        "TEXCOORD_0" : 23
                    },
                    "indices" : 11,
                    "material" : 6
                }
            ]
        }
    ],
    "accessors" : [
        {
            "bufferView" : 0,
            "componentType" : 5126,
            "count" : 54,
            "max" : [
                1,
                1,
                1
            ],
            "min" : [
                -1,
                -1,
                -1
            ],
            "type" : "VEC3"
        },
        {
            "bufferView" : 1,
            "componentType" : 5126,
            "count" : 54,
            "type" : "VEC3"
        },
        {
            "bufferView" : 2,
            "componentType" : 5126,
            "count" : 54,
            "type" : "VEC2"
        },
        {
            "bufferView" : 3,
            "componentType" : 5123,
            "count" : 102,
            "type" : "SCALAR"
        },
        {
            "bufferView" : 4,
            "componentType" : 5126,
            "count" : 48,
            "max" : [
                1,
                1,
                1
            ],
            "min" : [
                -1,
                -1,
                -1
            ],
            "type" : "VEC3"
        },
        {
            "bufferView" : 5,
            "componentType" : 5126,
            "count" : 48,
            "type" : "VEC3"
        },
        {
            "bufferView" : 6,
            "componentType" : 5126,
            "count" : 48,
            "type" : "VEC2"
        },
        {
            "bufferView" : 7,
            "componentType" : 5123,
            "count" : 84,
            "type" : "SCALAR"
        },
        {
            "bufferView" : 8,
            "componentType" : 5126,
            "count" : 192,
            "max" : [
                4.166666507720947,
                -1.4684686660766602,
                0.7633587121963501
            ],
            "min" : [
                -4.166666507720947,
                -1.6036038398742676,
                -0.7633587121963501
            ],
            "type" : "VEC3"
        },
        {
            "bufferView" : 9,
            "componentType" : 5126,
            "count" : 192,
            "type" : "VEC3"
        },
        {
            "bufferView" : 10,
            "componentType" : 5126,
            "count" : 192,
            "type" : "VEC2"
        },
        {
            "bufferView" : 11,
            "componentType" : 5123,
            "count" : 372,
            "type" : "SCALAR"
        },
        {
            "bufferView" : 12,
            "componentType" : 5126,
            "count" : 192,
            "max" : [
                0.8333333134651184,
                -0.9819820523262024,
                0.07633586972951889
            ],
            "min" : [
                -0.8333333134651184,
                -1.4684685468673706,
                -0.07633586972951889
            ],
            "type" : "VEC3"
        },
        {
            "bufferView" : 13,
            "componentType" : 5126,
            "count" : 192,
            "type" : "VEC3"
        },
        {
            "bufferView" : 14,
            "componentType" : 5126,
            "count" : 192,
            "type" : "VEC2"
        },
        {
            "bufferView" : 15,
            "componentType" : 5126,
            "count" : 48,
            "max" : [
                1,
                1,
                1
            ],
            "min" : [
                -1,
                -1,
                -1
            ],
            "type" : "VEC3"
        },
        {
            "bufferView" : 16,
            "componentType" : 5126,
            "count" : 48,
            "type" : "VEC3"
        },
        {
            "bufferView" : 17,
            "componentType" : 5126,
            "count" : 48,
            "type" : "VEC2"
        },
        {
            "bufferView" : 18,
            "componentType" : 5126,
            "count" : 192,
            "max" : [
                4.166666507720947,
                -1.4684686660766602,
                0.7633587121963501
            ],
            "min" : [
                -4.166666507720947,
                -1.6036038398742676,
                -0.7633587121963501
            ],
            "type" : "VEC3"
        },
        {
            "bufferView" : 19,
            "componentType" : 5126,
            "count" : 192,
            "type" : "VEC3"
        },
        {
            "bufferView" : 20,
            "componentType" : 5126,
            "count" : 192,
            "type" : "VEC2"
        },
        {
            "bufferView" : 21,
            "componentType" : 5126,
            "count" : 192,
            "max" : [
                0.8333333134651184,
                -0.9819820523262024,
                0.07633586972951889
            ],
            "min" : [
                -0.8333333134651184,
                -1.4684685468673706,
                -0.07633586972951889
            ],
            "type" : "VEC3"
        },
        {
            "bufferView" : 22,
            "componentType" : 5126,
            "count" : 192,
            "type" : "VEC3"
        },
        {
            "bufferView" : 23,
            "componentType" : 5126,
            "count" : 192,
            "type" : "VEC2"
        }
    ],
    "bufferViews" : [
        {
            "buffer" : 0,
            "byteLength" : 648,
            "byteOffset" : 0
        },
        {
            "buffer" : 0,
            "byteLength" : 648,
            "byteOffset" : 648
        },
        {
            "buffer" : 0,
            "byteLength" : 432,
            "byteOffset" : 1296
        },
        {
            "buffer" : 0,
            "byteLength" : 204,
            "byteOffset" : 1728
        },
        {
            "buffer" : 0,
            "byteLength" : 576,
            "byteOffset" : 1932
        },
        {
            "buffer" : 0,
            "byteLength" : 576,
            "byteOffset" : 2508
        },
        {
            "buffer" : 0,
            "byteLength" : 384,
            "byteOffset" : 3084
        },
        {
            "buffer" : 0,
            "byteLength" : 168,
            "byteOffset" : 3468
        },
        {
            "buffer" : 0,
            "byteLength" : 2304,
            "byteOffset" : 3636
        },
        {
            "buffer" : 0,
            "byteLength" : 2304,
            "byteOffset" : 5940
        },
        {
            "buffer" : 0,
            "byteLength" : 1536,
            "byteOffset" : 8244
        },
        {
            "buffer" : 0,
            "byteLength" : 744,
            "byteOffset" : 9780
        },
        {
            "buffer" : 0,
            "byteLength" : 2304,
            "byteOffset" : 10524
        },
        {
            "buffer" : 0,
            "byteLength" : 2304,
            "byteOffset" : 12828
        },
        {
            "buffer" : 0,
            "byteLength" : 1536,
            "byteOffset" : 15132
        },
        {
            "buffer" : 0,
            "byteLength" : 576,
            "byteOffset" : 16668
        },
        {
            "buffer" : 0,
            "byteLength" : 576,
            "byteOffset" : 17244
        },
        {
            "buffer" : 0,
            "byteLength" : 384,
            "byteOffset" : 17820
        },
        {
            "buffer" : 0,
            "byteLength" : 2304,
            "byteOffset" : 18204
        },
        {
            "buffer" : 0,
            "byteLength" : 2304,
            "byteOffset" : 20508
        },
        {
            "buffer" : 0,
            "byteLength" : 1536,
            "byteOffset" : 22812
        },
        {
            "buffer" : 0,
            "byteLength" : 2304,
            "byteOffset" : 24348
        },
        {
            "buffer" : 0,
            "byteLength" : 2304,
            "byteOffset" : 26652
        },
        {
            "buffer" : 0,
            "byteLength" : 1536,
            "byteOffset" : 28956
        }
    ],
    "buffers" : [
        {
            "byteLength" : 30492,
            "uri" : "data:application/octet-stream;base64,"
        }
    ]
}
